<mxfile host="app.diagrams.net" agent="Mozilla/5.0 (Windows NT 10.0; Win64; x64) AppleWebKit/537.36 (KHTML, like Gecko) Chrome/130.0.0.0 Safari/537.36" version="24.8.4">
  <diagram name="Страница — 1" id="JKy0RP5zcK9m9YfXDw1u">
    <mxGraphModel dx="1400" dy="768" grid="1" gridSize="10" guides="1" tooltips="1" connect="1" arrows="1" fold="1" page="1" pageScale="1" pageWidth="1654" pageHeight="1169" math="0" shadow="0">
      <root>
        <mxCell id="0" />
        <mxCell id="1" parent="0" />
        <mxCell id="SOHpdvgheKW1PcQzyKKk-1" value="" style="rounded=1;whiteSpace=wrap;html=1;" parent="1" vertex="1">
          <mxGeometry x="60" y="170" width="210" height="360" as="geometry" />
        </mxCell>
        <mxCell id="SOHpdvgheKW1PcQzyKKk-2" value="" style="rounded=0;whiteSpace=wrap;html=1;" parent="1" vertex="1">
          <mxGeometry x="82.5" y="220" width="165" height="190" as="geometry" />
        </mxCell>
        <mxCell id="SOHpdvgheKW1PcQzyKKk-4" value="" style="ellipse;whiteSpace=wrap;html=1;aspect=fixed;" parent="1" vertex="1">
          <mxGeometry x="147.5" y="485" width="35" height="35" as="geometry" />
        </mxCell>
        <mxCell id="SOHpdvgheKW1PcQzyKKk-6" value="" style="rounded=0;whiteSpace=wrap;html=1;" parent="1" vertex="1">
          <mxGeometry x="360" y="170" width="200" height="360" as="geometry" />
        </mxCell>
        <mxCell id="SOHpdvgheKW1PcQzyKKk-7" value="" style="shape=cylinder3;whiteSpace=wrap;html=1;boundedLbl=1;backgroundOutline=1;size=15;" parent="1" vertex="1">
          <mxGeometry x="650" y="170" width="270" height="360" as="geometry" />
        </mxCell>
        <mxCell id="SOHpdvgheKW1PcQzyKKk-8" value="" style="endArrow=classic;startArrow=classic;html=1;rounded=0;exitX=1;exitY=0.333;exitDx=0;exitDy=0;exitPerimeter=0;" parent="1" source="SOHpdvgheKW1PcQzyKKk-1" edge="1">
          <mxGeometry width="50" height="50" relative="1" as="geometry">
            <mxPoint x="310" y="340" as="sourcePoint" />
            <mxPoint x="360" y="290" as="targetPoint" />
          </mxGeometry>
        </mxCell>
        <mxCell id="SOHpdvgheKW1PcQzyKKk-9" value="" style="endArrow=classic;startArrow=classic;html=1;rounded=0;exitX=1;exitY=0.333;exitDx=0;exitDy=0;exitPerimeter=0;" parent="1" edge="1">
          <mxGeometry width="50" height="50" relative="1" as="geometry">
            <mxPoint x="560" y="290" as="sourcePoint" />
            <mxPoint x="650" y="290" as="targetPoint" />
          </mxGeometry>
        </mxCell>
        <mxCell id="SOHpdvgheKW1PcQzyKKk-10" value="&lt;b&gt;&lt;font style=&quot;font-size: 20px;&quot;&gt;A&lt;/font&gt;&lt;/b&gt;" style="text;html=1;align=center;verticalAlign=middle;whiteSpace=wrap;rounded=0;" parent="1" vertex="1">
          <mxGeometry x="135" y="130" width="60" height="30" as="geometry" />
        </mxCell>
        <mxCell id="SOHpdvgheKW1PcQzyKKk-11" value="&lt;span style=&quot;font-size: 20px;&quot;&gt;&lt;b&gt;B&lt;/b&gt;&lt;/span&gt;" style="text;html=1;align=center;verticalAlign=middle;whiteSpace=wrap;rounded=0;" parent="1" vertex="1">
          <mxGeometry x="430" y="130" width="60" height="30" as="geometry" />
        </mxCell>
        <mxCell id="SOHpdvgheKW1PcQzyKKk-12" value="&lt;span style=&quot;font-size: 20px;&quot;&gt;&lt;b&gt;C&lt;/b&gt;&lt;/span&gt;" style="text;html=1;align=center;verticalAlign=middle;whiteSpace=wrap;rounded=0;" parent="1" vertex="1">
          <mxGeometry x="755" y="130" width="60" height="30" as="geometry" />
        </mxCell>
        <mxCell id="SOHpdvgheKW1PcQzyKKk-13" value="&lt;font style=&quot;font-size: 20px;&quot;&gt;&lt;b&gt;PG&lt;/b&gt;&lt;/font&gt;" style="text;html=1;align=center;verticalAlign=middle;whiteSpace=wrap;rounded=0;" parent="1" vertex="1">
          <mxGeometry x="755" y="320" width="60" height="30" as="geometry" />
        </mxCell>
        <mxCell id="SOHpdvgheKW1PcQzyKKk-14" value="&lt;font style=&quot;font-size: 20px;&quot;&gt;&lt;b&gt;1&lt;/b&gt;&lt;/font&gt;" style="text;html=1;align=center;verticalAlign=middle;whiteSpace=wrap;rounded=0;" parent="1" vertex="1">
          <mxGeometry x="290" y="250" width="60" height="30" as="geometry" />
        </mxCell>
        <mxCell id="SOHpdvgheKW1PcQzyKKk-15" value="&lt;font style=&quot;font-size: 20px;&quot;&gt;&lt;b&gt;2&lt;/b&gt;&lt;/font&gt;" style="text;html=1;align=center;verticalAlign=middle;whiteSpace=wrap;rounded=0;" parent="1" vertex="1">
          <mxGeometry x="570" y="250" width="60" height="30" as="geometry" />
        </mxCell>
        <mxCell id="SOHpdvgheKW1PcQzyKKk-16" value="&lt;b style=&quot;font-size: 20px;&quot;&gt;&lt;font style=&quot;font-size: 20px;&quot;&gt;A. Фронтенд, мобильное приложение&lt;/font&gt;&lt;/b&gt;&lt;div style=&quot;font-size: 20px;&quot;&gt;&lt;b&gt;&lt;font style=&quot;font-size: 20px;&quot;&gt;B. Бэкенд, сервер&lt;/font&gt;&lt;/b&gt;&lt;/div&gt;&lt;div style=&quot;font-size: 20px;&quot;&gt;&lt;b&gt;&lt;font style=&quot;font-size: 20px;&quot;&gt;С. Реляционная база данных, PG&lt;/font&gt;&lt;/b&gt;&lt;/div&gt;&lt;div style=&quot;font-size: 20px;&quot;&gt;&lt;b&gt;&lt;font style=&quot;font-size: 20px;&quot;&gt;1. Взаимодействие по https. Отправка товара на добавление/удаление в &quot;Избранное&quot;&lt;/font&gt;&lt;/b&gt;&lt;/div&gt;&lt;div style=&quot;font-size: 20px;&quot;&gt;&lt;b style=&quot;&quot;&gt;&lt;font style=&quot;font-size: 20px;&quot;&gt;2. Сохранение данных в базу, получение данных из базы&lt;/font&gt;&lt;/b&gt;&lt;/div&gt;" style="text;html=1;align=left;verticalAlign=middle;whiteSpace=wrap;rounded=0;" parent="1" vertex="1">
          <mxGeometry x="75" y="585" width="345" height="175" as="geometry" />
        </mxCell>
        <mxCell id="pWok1UBGrT_jj31mdL-V-1" value="Есть возможность добавить/удалить товар в каталог &quot;Избранное&quot;, есть возможность отобразить каталог &quot;Избранное&quot;" style="text;html=1;align=center;verticalAlign=middle;whiteSpace=wrap;rounded=0;" parent="1" vertex="1">
          <mxGeometry x="80" y="220" width="170" height="190" as="geometry" />
        </mxCell>
        <mxCell id="pWok1UBGrT_jj31mdL-V-2" value="Обработка запроса от клиента, валидация данных, сохранение данных в базу, получение данных из базы" style="text;html=1;align=center;verticalAlign=middle;whiteSpace=wrap;rounded=0;" parent="1" vertex="1">
          <mxGeometry x="360" y="170" width="200" height="360" as="geometry" />
        </mxCell>
      </root>
    </mxGraphModel>
  </diagram>
</mxfile>
